<svg width="25" height="25" viewBox="0 0 25 25" fill="none" xmlns="http://www.w3.org/2000/svg">
<path fill-rule="evenodd" clip-rule="evenodd" d="M5.5125 1.58231C5.65709 1.38952 5.88401 1.27606 6.125 1.27606H18.375C18.616 1.27606 18.8429 1.38952 18.9875 1.58231L22.05 5.66565C22.1494 5.79817 22.2031 5.95936 22.2031 6.12502V20.4167C22.2031 21.1612 21.9074 21.8753 21.3809 22.4017C20.8544 22.9282 20.1404 23.224 19.3958 23.224H5.10417C4.35963 23.224 3.64558 22.9282 3.11911 22.4017C2.59264 21.8753 2.29688 21.1612 2.29688 20.4167V6.12502C2.29688 5.95936 2.3506 5.79817 2.45 5.66565L5.5125 1.58231ZM6.50781 2.80731L3.82812 6.38023V20.4167C3.82812 20.7551 3.96256 21.0797 4.20187 21.319C4.44117 21.5583 4.76574 21.6927 5.10417 21.6927H19.3958C19.7343 21.6927 20.0588 21.5583 20.2981 21.319C20.5374 21.0797 20.6719 20.7551 20.6719 20.4167V6.38023L17.9922 2.80731H6.50781Z" fill="#323232"/>
<path fill-rule="evenodd" clip-rule="evenodd" d="M8.16669 9.44269C8.58953 9.44269 8.93231 9.78547 8.93231 10.2083C8.93231 11.0882 9.28186 11.9321 9.90405 12.5543C10.5262 13.1765 11.3701 13.526 12.25 13.526C13.1299 13.526 13.9738 13.1765 14.596 12.5543C15.2182 11.9321 15.5677 11.0882 15.5677 10.2083C15.5677 9.78547 15.9105 9.44269 16.3334 9.44269C16.7562 9.44269 17.099 9.78547 17.099 10.2083C17.099 11.4943 16.5881 12.7277 15.6788 13.637C14.7694 14.5464 13.536 15.0573 12.25 15.0573C10.964 15.0573 9.73065 14.5464 8.82129 13.637C7.91193 12.7277 7.40106 11.4943 7.40106 10.2083C7.40106 9.78547 7.74384 9.44269 8.16669 9.44269Z" fill="#323232"/>
<path fill-rule="evenodd" clip-rule="evenodd" d="M2.29688 6.125C2.29688 5.70216 2.63966 5.35938 3.0625 5.35938H21.4375C21.8603 5.35938 22.2031 5.70216 22.2031 6.125C22.2031 6.54784 21.8603 6.89062 21.4375 6.89062H3.0625C2.63966 6.89062 2.29688 6.54784 2.29688 6.125Z" fill="#323232"/>
</svg>
