<svg width="25" height="25" viewBox="0 0 25 25" fill="none" xmlns="http://www.w3.org/2000/svg">
<path fill-rule="evenodd" clip-rule="evenodd" d="M11.7292 4.84894C7.64168 4.84894 4.32812 8.1625 4.32812 12.25C4.32812 16.3375 7.64168 19.651 11.7292 19.651C15.8166 19.651 19.1302 16.3375 19.1302 12.25C19.1302 8.1625 15.8166 4.84894 11.7292 4.84894ZM2.79688 12.25C2.79688 7.31681 6.796 3.31769 11.7292 3.31769C16.6623 3.31769 20.6615 7.31681 20.6615 12.25C20.6615 17.1831 16.6623 21.1823 11.7292 21.1823C6.796 21.1823 2.79688 17.1831 2.79688 12.25Z" fill="#323232"/>
<path fill-rule="evenodd" clip-rule="evenodd" d="M16.9559 17.4762C17.2549 17.1772 17.7396 17.1772 18.0386 17.4762L22.4793 21.9168C22.7783 22.2158 22.7783 22.7006 22.4793 22.9996C22.1803 23.2986 21.6955 23.2986 21.3965 22.9996L16.9559 18.559C16.6569 18.26 16.6569 17.7752 16.9559 17.4762Z" fill="#323232"/>
</svg>
