<svg width="25" height="25" viewBox="0 0 25 25" fill="none" xmlns="http://www.w3.org/2000/svg">
<path fill-rule="evenodd" clip-rule="evenodd" d="M5.23791 15.9671C6.14727 15.0577 7.38062 14.5469 8.66665 14.5469H16.8333C18.1193 14.5469 19.3527 15.0577 20.262 15.9671C21.1714 16.8765 21.6823 18.1098 21.6823 19.3958V21.4375C21.6823 21.8603 21.3395 22.2031 20.9166 22.2031C20.4938 22.2031 20.151 21.8603 20.151 21.4375V19.3958C20.151 18.5159 19.8015 17.6721 19.1793 17.0499C18.5571 16.4277 17.7132 16.0781 16.8333 16.0781H8.66665C7.78674 16.0781 6.94286 16.4277 6.32067 17.0499C5.69848 17.6721 5.34894 18.5159 5.34894 19.3958V21.4375C5.34894 21.8603 5.00616 22.2031 4.58331 22.2031C4.16047 22.2031 3.81769 21.8603 3.81769 21.4375V19.3958C3.81769 18.1098 4.32856 16.8765 5.23791 15.9671Z" fill="#070707"/>
<path fill-rule="evenodd" clip-rule="evenodd" d="M12.75 3.82812C10.9177 3.82812 9.43231 5.31351 9.43231 7.14583C9.43231 8.97815 10.9177 10.4635 12.75 10.4635C14.5823 10.4635 16.0677 8.97815 16.0677 7.14583C16.0677 5.31351 14.5823 3.82812 12.75 3.82812ZM7.90106 7.14583C7.90106 4.46783 10.072 2.29688 12.75 2.29688C15.428 2.29688 17.599 4.46783 17.599 7.14583C17.599 9.82384 15.428 11.9948 12.75 11.9948C10.072 11.9948 7.90106 9.82384 7.90106 7.14583Z" fill="#070707"/>
</svg>
